<?xml version="1.0" standalone="no"?>
<!DOCTYPE svg PUBLIC "-//W3C//DTD SVG 20010904//EN"
 "http://www.w3.org/TR/2001/REC-SVG-20010904/DTD/svg10.dtd">
<svg version="1.0" xmlns="http://www.w3.org/2000/svg"
 width="416.000000pt" height="416.000000pt" viewBox="0 0 416.000000 416.000000"
 preserveAspectRatio="xMidYMid meet">

<g transform="translate(0.000000,416.000000) scale(0.100000,-0.100000)"
fill="#2655AF" stroke="none">
<path d="M1886 2954 c-159 -35 -271 -97 -387 -213 -55 -55 -103 -115 -132
-164 l-45 -79 -109 -1 c-90 -2 -116 -6 -154 -25 -128 -63 -197 -205 -170 -354
11 -60 10 -64 -11 -78 -44 -29 -121 -105 -145 -144 -90 -141 -87 -350 7 -496
65 -101 173 -177 286 -200 35 -7 365 -10 1025 -8 l974 3 81 27 c298 102 455
413 360 714 -30 94 -100 200 -173 263 -99 84 -248 143 -399 157 l-73 7 -21 70
c-76 249 -276 440 -535 512 -86 24 -291 29 -379 9z m286 -554 c80 -25 174 -84
216 -138 18 -22 45 -67 60 -99 25 -53 27 -68 27 -173 -1 -153 -21 -208 -114
-301 -120 -119 -188 -139 -473 -139 l-208 0 0 435 0 435 214 0 c185 0 223 -3
278 -20z"/>
<path d="M1870 1985 l0 -265 85 0 c159 0 237 34 292 127 25 43 28 57 28 138 0
80 -3 95 -28 137 -55 93 -131 128 -284 128 l-93 0 0 -265z"/>
</g>
</svg>
